REM DIRINDEX 1\2,1\3,1\4,1\5
REM DIRNAME cjc004,folder01,folder02,folder03,folder04
TITLE ""
FILE "1Q_t_1257-1266.mp3" MP3
  TRACK 01 AUDIO
    TITLE "3:cjc004_4676"
    INDEX 01 00:00:00
  TRACK 02 AUDIO
    TITLE "0:"
    INDEX 01 00:00:70
  TRACK 03 AUDIO
    TITLE "4:cjc004_4677"
    INDEX 01 00:01:21
  TRACK 04 AUDIO
    TITLE "0:"
    INDEX 01 00:02:38
  TRACK 05 AUDIO
    TITLE "5:cjc004_4678"
    INDEX 01 00:02:63
  TRACK 06 AUDIO
    TITLE "0:"
    INDEX 01 00:07:23
  TRACK 07 AUDIO
    TITLE "3:cjc004_4679"
    INDEX 01 00:07:74
  TRACK 08 AUDIO
    TITLE "0:"
    INDEX 01 00:09:34
  TRACK 09 AUDIO
    TITLE "4:cjc004_4680"
    INDEX 01 00:09:57
  TRACK 10 AUDIO
    TITLE "0:"
    INDEX 01 00:11:03
  TRACK 11 AUDIO
    TITLE "5:cjc004_4681"
    INDEX 01 00:11:27
  TRACK 12 AUDIO
    TITLE "0:"
    INDEX 01 00:15:60
  TRACK 13 AUDIO
    TITLE "3:cjc004_4682"
    INDEX 01 00:16:38
  TRACK 14 AUDIO
    TITLE "0:"
    INDEX 01 00:17:57
  TRACK 15 AUDIO
    TITLE "4:cjc004_4683"
    INDEX 01 00:18:09
  TRACK 16 AUDIO
    TITLE "0:"
    INDEX 01 00:19:18
  TRACK 17 AUDIO
    TITLE "5:cjc004_4684"
    INDEX 01 00:19:42
  TRACK 18 AUDIO
    TITLE "0:"
    INDEX 01 00:23:55
  TRACK 19 AUDIO
    TITLE "3:cjc004_4685"
    INDEX 01 00:24:33
  TRACK 20 AUDIO
    TITLE "0:"
    INDEX 01 00:25:54
  TRACK 21 AUDIO
    TITLE "4:cjc004_4686"
    INDEX 01 00:26:03
  TRACK 22 AUDIO
    TITLE "0:"
    INDEX 01 00:27:53
  TRACK 23 AUDIO
    TITLE "5:cjc004_4687"
    INDEX 01 00:27:73
  TRACK 24 AUDIO
    TITLE "0:"
    INDEX 01 00:33:03
  TRACK 25 AUDIO
    TITLE "3:cjc004_4688"
    INDEX 01 00:33:54
  TRACK 26 AUDIO
    TITLE "0:"
    INDEX 01 00:34:73
  TRACK 27 AUDIO
    TITLE "4:cjc004_4689"
    INDEX 01 00:35:19
  TRACK 28 AUDIO
    TITLE "0:"
    INDEX 01 00:36:33
  TRACK 29 AUDIO
    TITLE "5:cjc004_4690"
    INDEX 01 00:36:60
  TRACK 30 AUDIO
    TITLE "0:"
    INDEX 01 00:41:00
  TRACK 31 AUDIO
    TITLE "3:cjc004_4691"
    INDEX 01 00:41:51
  TRACK 32 AUDIO
    TITLE "0:"
    INDEX 01 00:42:53
  TRACK 33 AUDIO
    TITLE "4:cjc004_4692"
    INDEX 01 00:43:01
  TRACK 34 AUDIO
    TITLE "0:"
    INDEX 01 00:44:12
  TRACK 35 AUDIO
    TITLE "5:cjc004_4693"
    INDEX 01 00:44:34
  TRACK 36 AUDIO
    TITLE "0:"
    INDEX 01 00:48:34
  TRACK 37 AUDIO
    TITLE "3:cjc004_4694"
    INDEX 01 00:49:10
  TRACK 38 AUDIO
    TITLE "0:"
    INDEX 01 00:50:31
  TRACK 39 AUDIO
    TITLE "4:cjc004_4695"
    INDEX 01 00:50:60
  TRACK 40 AUDIO
    TITLE "0:"
    INDEX 01 00:52:00
  TRACK 41 AUDIO
    TITLE "5:cjc004_4696"
    INDEX 01 00:52:28
  TRACK 42 AUDIO
    TITLE "0:"
    INDEX 01 00:55:57
  TRACK 43 AUDIO
    TITLE "3:cjc004_4697"
    INDEX 01 00:56:33
  TRACK 44 AUDIO
    TITLE "0:"
    INDEX 01 00:57:48
  TRACK 45 AUDIO
    TITLE "4:cjc004_4698"
    INDEX 01 00:57:72
  TRACK 46 AUDIO
    TITLE "0:"
    INDEX 01 00:59:16
  TRACK 47 AUDIO
    TITLE "5:cjc004_4699"
    INDEX 01 00:59:38
  TRACK 48 AUDIO
    TITLE "0:"
    INDEX 01 01:04:48
  TRACK 49 AUDIO
    TITLE "3:cjc004_4700"
    INDEX 01 01:05:26
  TRACK 50 AUDIO
    TITLE "0:"
    INDEX 01 01:06:26
  TRACK 51 AUDIO
    TITLE "4:cjc004_4701"
    INDEX 01 01:06:51
  TRACK 52 AUDIO
    TITLE "0:"
    INDEX 01 01:08:13
  TRACK 53 AUDIO
    TITLE "5:cjc004_4702"
    INDEX 01 01:08:35
  TRACK 54 AUDIO
    TITLE "0:"
    INDEX 01 01:11:23
  TRACK 55 AUDIO
    TITLE "3:cjc004_4703"
    INDEX 01 01:11:74
  TRACK 56 AUDIO
    TITLE "0:"
    INDEX 01 01:13:16
  TRACK 57 AUDIO
    TITLE "4:cjc004_4704"
    INDEX 01 01:13:42
  TRACK 58 AUDIO
    TITLE "0:"
    INDEX 01 01:14:74
  TRACK 59 AUDIO
    TITLE "5:cjc004_4705"
    INDEX 01 01:15:25
  TRACK 60 AUDIO
    TITLE "0:"
    INDEX 01 01:20:06
